<?xml version="1.0" encoding="UTF-8" standalone="no"?>
<!-- Created with Inkscape (http://www.inkscape.org/) -->

<svg
   xmlns:dc="http://purl.org/dc/elements/1.1/"
   xmlns:cc="http://creativecommons.org/ns#"
   xmlns:rdf="http://www.w3.org/1999/02/22-rdf-syntax-ns#"
   xmlns:svg="http://www.w3.org/2000/svg"
   xmlns="http://www.w3.org/2000/svg"
   xmlns:sodipodi="http://sodipodi.sourceforge.net/DTD/sodipodi-0.dtd"
   xmlns:inkscape="http://www.inkscape.org/namespaces/inkscape"
   width="128"
   height="128"
   viewBox="0 0 33.866667 33.866667"
   version="1.1"
   id="svg8"
   inkscape:version="0.92+devel unknown"
   sodipodi:docname="icon.svg">
  <defs
     id="defs2" />
  <sodipodi:namedview
     id="base"
     pagecolor="#ffffff"
     bordercolor="#666666"
     borderopacity="1.0"
     inkscape:pageopacity="0.0"
     inkscape:pageshadow="2"
     inkscape:zoom="3.959798"
     inkscape:cx="56.014372"
     inkscape:cy="58.181475"
     inkscape:document-units="mm"
     inkscape:current-layer="layer1"
     inkscape:document-rotation="0"
     showgrid="false"
     units="px"
     width="128px"
     inkscape:window-width="1397"
     inkscape:window-height="837"
     inkscape:window-x="0"
     inkscape:window-y="0"
     inkscape:window-maximized="0" />
  <metadata
     id="metadata5">
    <rdf:RDF>
      <cc:Work
         rdf:about="">
        <dc:format>image/svg+xml</dc:format>
        <dc:type
           rdf:resource="http://purl.org/dc/dcmitype/StillImage" />
        <dc:title />
      </cc:Work>
    </rdf:RDF>
  </metadata>
  <g
     inkscape:label="Layer 1"
     inkscape:groupmode="layer"
     id="layer1"
     transform="translate(0,-263.13333)">
    <g
       style="display:block"
       id="g3475"
       transform="matrix(0.05712848,0,-0.04104106,0.10852543,13.168026,270.62538)">
      <g
         id="svgg">
        <path
           fill-rule="evenodd"
           fill="#241e21"
           stroke="none"
           d="m 253.706,1.976 c -56.368,12.182 -84.915,27.326 -86.815,46.058 -1.269,12.503 21.503,29.441 60.326,44.872 31.666,12.585 19.086,21.416 -53.948,37.869 -12.703,2.862 -18.374,4.128 -21.872,4.885 -1.336,0.289 -3.195,0.701 -4.131,0.915 -0.936,0.214 -2.685,0.604 -3.888,0.866 -81.7,17.817 -122.981,33.358 -133.893,50.408 -11.36,17.749 8.842,39.113 50.053,52.934 2.139,0.717 4.268,1.512 4.732,1.767 0.523,0.287 24.292,0.463 62.393,0.463 68.281,0 63.609,0.264 56.897,-3.204 -23.913,-12.355 -40.902,-33.4 -36.354,-45.034 l 0.522,-1.336 h 6.292 6.291 l -0.042,3.766 c -0.17,15.287 19.802,31.087 54.798,43.351 2.406,0.843 4.754,1.741 5.218,1.995 1.183,0.648 165.78,0.628 165.379,-0.021 -0.164,-0.265 -3.294,-2.005 -6.954,-3.866 -32.866,-16.71 -48.372,-31.594 -48.38,-46.44 -0.007,-11.968 6.906,-20.477 32.975,-40.589 22.429,-17.304 29.36,-25.56 30.237,-36.014 1.072,-12.793 -10.757,-24.867 -34.786,-35.503 -14.833,-6.565 -33.775,-11.919 -67.626,-19.115 -5.747,-1.221 -11.762,-2.531 -13.366,-2.91 -47.83,-11.307 -58.362,-17.232 -50.029,-28.144 4.729,-6.194 23.228,-17.394 43.17,-26.136 6.81,-2.986 6.217,-3.39 -3.025,-2.062 -1.299,0.187 -2.315,0.096 -2.649,-0.238 -0.801,-0.801 -6.787,-0.561 -11.525,0.463 m 5.832,1.851 c 0,0.604 -2.553,1.038 -3.937,0.67 l -1.166,-0.311 1.215,-0.343 c 1.766,-0.5 3.888,-0.508 3.888,-0.016 m -7.554,2.613 c -0.29,0.755 -5.44,2.308 -7.654,2.308 -2.842,0 -2.474,-0.678 0.958,-1.765 3.837,-1.215 7.054,-1.476 6.696,-0.543 m -14.56,5.225 c 0.165,0.267 -0.003,0.486 -0.373,0.486 -0.371,0 -2.02,0.546 -3.665,1.215 -2.877,1.169 -7.384,1.66 -7.384,0.805 0,-1.53 10.589,-3.854 11.422,-2.506 m -13.852,5.554 c 0,0.92 -10.638,5.624 -12.719,5.624 -3.353,0 -2.974,-0.479 2.62,-3.314 4.479,-2.271 10.099,-3.556 10.099,-2.31 m -15.827,8.489 c 0.148,0.24 -0.003,0.541 -0.336,0.671 -0.332,0.129 -1.947,1.245 -3.587,2.481 -3.876,2.918 -9.159,3.395 -6.006,0.542 3.771,-3.413 8.919,-5.328 9.929,-3.694 m -10.144,9.407 c -0.872,2.934 -0.843,4.655 0.114,6.818 1.197,2.707 1.132,2.781 -2.425,2.781 -3.987,0 -5.33,-3.728 -3.114,-8.642 1.12,-2.483 6.142,-3.369 5.425,-0.957 m 6.324,14.286 c 1.584,1.241 4.588,3.349 6.676,4.685 4.56,2.917 4.365,3.433 -1.211,3.195 -4.35,-0.185 -7.109,-1.635 -12.671,-6.659 -4.661,-4.211 1.959,-5.332 7.206,-1.221 m 19.921,11.79 c 4.047,1.952 8.428,3.876 13.457,5.908 6.57,2.656 6.538,3.016 -0.243,2.79 -5.336,-0.177 -5.603,-0.241 -11.058,-2.638 -9.628,-4.231 -13.608,-6.154 -13.608,-6.576 0,-0.878 9.445,-0.452 11.452,0.516 M 266.1,77.559 c 14.48,5.012 14.511,5.032 7.719,5.051 l -5.404,0.015 -10.878,-3.656 c -5.983,-2.011 -11.258,-3.87 -11.722,-4.131 -0.465,-0.262 -1.175,-0.476 -1.58,-0.476 -0.405,0 -0.736,-0.231 -0.736,-0.515 0,-2.055 11.296,-0.2 22.601,3.712 m 30.996,10.34 c 14.625,5.182 21.9,10.944 21.933,17.374 0.022,4.203 -0.9,5.055 -5.472,5.055 -4.257,0 -4.736,-0.211 -3.78,-1.669 3.8,-5.801 -2.444,-12.441 -16.703,-17.764 -6.872,-2.565 -9.234,-3.514 -9.234,-3.71 0,-0.68 10.992,-0.089 13.256,0.714 m 13.697,28.869 c -1.041,2.701 -21.627,12.928 -44.19,21.951 l -6.787,2.715 h -9.345 c -5.139,0 -9.447,-0.167 -9.573,-0.37 -0.126,-0.203 3.525,-1.655 8.112,-3.226 24.717,-8.464 46.084,-17.166 51.584,-21.008 1.3,-0.908 10.546,-0.964 10.199,-0.062 m -73.629,33.114 c -0.703,0.663 -2.89,1.504 -13.349,5.133 -28.254,9.801 -41.942,16.353 -52.975,25.354 l -2.914,2.377 h -6.928 c -8.032,0 -7.913,0.129 -3.647,-3.944 9.384,-8.957 26.301,-17.949 47.943,-25.485 1.098,-0.383 4.074,-1.449 6.614,-2.371 l 4.617,-1.676 10.675,-0.03 c 9.103,-0.025 10.571,0.069 9.964,0.642"
           id="path1"
           inkscape:connector-curvature="0" />
      </g>
    </g>
    <g
       id="g3535"
       transform="matrix(0.03874216,0,0,0.03874216,0.55803893,273.15786)">
      <g
         id="g3479">
        <path
           id="path3477"
           fill="#006DF0"
           d="M 256,0 C 167.641,0 96,71.625 96,160 c 0,24.75 5.625,48.219 15.672,69.125 C 112.234,230.313 256,512 256,512 L 398.594,232.625 C 409.719,210.844 416,186.156 416,160 416,71.625 344.375,0 256,0 Z m 0,256 c -53.016,0 -96,-43 -96,-96 0,-53 42.984,-96 96,-96 53,0 96,43 96,96 0,53 -43,96 -96,96 z"
           inkscape:connector-curvature="0" />
      </g>
      <g
         id="g3481" />
      <g
         id="g3483" />
      <g
         id="g3485" />
      <g
         id="g3487" />
      <g
         id="g3489" />
      <g
         id="g3491" />
      <g
         id="g3493" />
      <g
         id="g3495" />
      <g
         id="g3497" />
      <g
         id="g3499" />
      <g
         id="g3501" />
      <g
         id="g3503" />
      <g
         id="g3505" />
      <g
         id="g3507" />
      <g
         id="g3509" />
    </g>
    <g
       id="g3595"
       transform="matrix(0.01998415,0,0,0.01998415,16.353692,266.46034)">
      <g
         id="g3539">
        <path
           id="path3537"
           fill="#D80027"
           d="M 256,0 C 167.641,0 96,71.625 96,160 c 0,24.75 5.625,48.219 15.672,69.125 C 112.234,230.313 256,512 256,512 L 398.594,232.625 C 409.719,210.844 416,186.156 416,160 416,71.625 344.375,0 256,0 Z m 0,256 c -53.016,0 -96,-43 -96,-96 0,-53 42.984,-96 96,-96 53,0 96,43 96,96 0,53 -43,96 -96,96 z"
           inkscape:connector-curvature="0" />
      </g>
      <g
         id="g3541" />
      <g
         id="g3543" />
      <g
         id="g3545" />
      <g
         id="g3547" />
      <g
         id="g3549" />
      <g
         id="g3551" />
      <g
         id="g3553" />
      <g
         id="g3555" />
      <g
         id="g3557" />
      <g
         id="g3559" />
      <g
         id="g3561" />
      <g
         id="g3563" />
      <g
         id="g3565" />
      <g
         id="g3567" />
      <g
         id="g3569" />
    </g>
  </g>
</svg>
